# xmcd
#
# Track frame offsets:
#	150
#	18482
#	35936
#	55062
#	71680
#	89351
#	108427
#	127046
#	146177
#	161262
#	176009
#	193051
#	209310
#	223551
#	238276
#	254404
#	274059
#	291368
#	308533
#	325152
#
# Disc length: 4571 seconds
#
# Revision: 1
# Processed by: cddbd v1.5PL3 Copyright (c) Steve Scherf et al.
# Submitted via: audiograbber 1.83.01
#
DISCID=3a11d914
DTITLE=сборник - Музыкальный коктейль 7.
DYEAR=2001
DGENRE=
TTITLE0=Демо and Братья улыбайте. - Улыбайте лица.
TTITLE1=Дискотека Авария. - Яйца.
TTITLE2=Plazma. - Fading Like A Rose.
TTITLE3=Алсу. - He Loves Me He Loves Me Not.
TTITLE4=Жасмин. - Ты далеко.
TTITLE5=Таня Буланова. - Ты не любила.
TTITLE6=Алла Горбачева. - Белая ночь.
TTITLE7=Bad B Альянс. - В любви.
TTITLE8=Макс. - Не забывай.
TTITLE9=Кристина Орбакайте. - Робот.
TTITLE10=Запрещенные барабанщики. - Случай в Макдональдсе.
TTITLE11=Дискомафия. - Летняя пора.
TTITLE12=Татьяна Овсиенко. - Чайка.
TTITLE13=Алла Пугачева. - Речной трамвайчик.
TTITLE14=Вирус. - Девченка.
TTITLE15=7Б. - Молодые ветра.
TTITLE16=Деникин. - Чума.
TTITLE17=ДДТ. - Она.
TTITLE18=Никита. - В твоей любви я утону.
TTITLE19=Лиза. - Теперь я знаю как жить.
EXTD=
EXTT0=
EXTT1=
EXTT2=
EXTT3=
EXTT4=
EXTT5=
EXTT6=
EXTT7=
EXTT8=
EXTT9=
EXTT10=
EXTT11=
EXTT12=
EXTT13=
EXTT14=
EXTT15=
EXTT16=
EXTT17=
EXTT18=
EXTT19=
PLAYORDER=
